<svg xmlns="http://www.w3.org/2000/svg" style="cursor: move;" width="1872" height="939"><g transform="translate(-453.4407967506179,-189.33900437484783) scale(1.3717332885905962)"><path class="link" style="stroke-width: 0.5px; stroke-opacity: 1; stroke: rgb(80, 80, 80);" marker-end="" d="M776,279.5, 956,279.5"></path><path class="link" style="stroke-width: 0.5px; stroke-opacity: 1; stroke: rgb(80, 80, 80);" marker-end="" d="M776,319.5, 956,279.5"></path><path class="link" style="stroke-width: 0.5px; stroke-opacity: 1; stroke: rgb(80, 80, 80);" marker-end="" d="M776,359.5, 956,279.5"></path><path class="link" style="stroke-width: 0.5px; stroke-opacity: 1; stroke: rgb(80, 80, 80);" marker-end="" d="M776,399.5, 956,279.5"></path><path class="link" style="stroke-width: 0.5px; stroke-opacity: 1; stroke: rgb(80, 80, 80);" marker-end="" d="M776,439.5, 956,279.5"></path><path class="link" style="stroke-width: 0.5px; stroke-opacity: 1; stroke: rgb(80, 80, 80);" marker-end="" d="M776,479.5, 956,279.5"></path><path class="link" style="stroke-width: 0.5px; stroke-opacity: 1; stroke: rgb(80, 80, 80);" marker-end="" d="M776,519.5, 956,279.5"></path><path class="link" style="stroke-width: 0.5px; stroke-opacity: 1; stroke: rgb(80, 80, 80);" marker-end="" d="M776,559.5, 956,279.5"></path><path class="link" style="stroke-width: 0.5px; stroke-opacity: 1; stroke: rgb(80, 80, 80);" marker-end="" d="M776,599.5, 956,279.5"></path><path class="link" style="stroke-width: 0.5px; stroke-opacity: 1; stroke: rgb(80, 80, 80);" marker-end="" d="M776,639.5, 956,279.5"></path><path class="link" style="stroke-width: 0.5px; stroke-opacity: 1; stroke: rgb(80, 80, 80);" marker-end="" d="M956,279.5, 1136,439.5"></path><path class="link" style="stroke-width: 0.5px; stroke-opacity: 1; stroke: rgb(80, 80, 80);" marker-end="" d="M776,279.5, 956,319.5"></path><path class="link" style="stroke-width: 0.5px; stroke-opacity: 1; stroke: rgb(80, 80, 80);" marker-end="" d="M776,319.5, 956,319.5"></path><path class="link" style="stroke-width: 0.5px; stroke-opacity: 1; stroke: rgb(80, 80, 80);" marker-end="" d="M776,359.5, 956,319.5"></path><path class="link" style="stroke-width: 0.5px; stroke-opacity: 1; stroke: rgb(80, 80, 80);" marker-end="" d="M776,399.5, 956,319.5"></path><path class="link" style="stroke-width: 0.5px; stroke-opacity: 1; stroke: rgb(80, 80, 80);" marker-end="" d="M776,439.5, 956,319.5"></path><path class="link" style="stroke-width: 0.5px; stroke-opacity: 1; stroke: rgb(80, 80, 80);" marker-end="" d="M776,479.5, 956,319.5"></path><path class="link" style="stroke-width: 0.5px; stroke-opacity: 1; stroke: rgb(80, 80, 80);" marker-end="" d="M776,519.5, 956,319.5"></path><path class="link" style="stroke-width: 0.5px; stroke-opacity: 1; stroke: rgb(80, 80, 80);" marker-end="" d="M776,559.5, 956,319.5"></path><path class="link" style="stroke-width: 0.5px; stroke-opacity: 1; stroke: rgb(80, 80, 80);" marker-end="" d="M776,599.5, 956,319.5"></path><path class="link" style="stroke-width: 0.5px; stroke-opacity: 1; stroke: rgb(80, 80, 80);" marker-end="" d="M776,639.5, 956,319.5"></path><path class="link" style="stroke-width: 0.5px; stroke-opacity: 1; stroke: rgb(80, 80, 80);" marker-end="" d="M956,319.5, 1136,439.5"></path><path class="link" style="stroke-width: 0.5px; stroke-opacity: 1; stroke: rgb(80, 80, 80);" marker-end="" d="M776,279.5, 956,359.5"></path><path class="link" style="stroke-width: 0.5px; stroke-opacity: 1; stroke: rgb(80, 80, 80);" marker-end="" d="M776,319.5, 956,359.5"></path><path class="link" style="stroke-width: 0.5px; stroke-opacity: 1; stroke: rgb(80, 80, 80);" marker-end="" d="M776,359.5, 956,359.5"></path><path class="link" style="stroke-width: 0.5px; stroke-opacity: 1; stroke: rgb(80, 80, 80);" marker-end="" d="M776,399.5, 956,359.5"></path><path class="link" style="stroke-width: 0.5px; stroke-opacity: 1; stroke: rgb(80, 80, 80);" marker-end="" d="M776,439.5, 956,359.5"></path><path class="link" style="stroke-width: 0.5px; stroke-opacity: 1; stroke: rgb(80, 80, 80);" marker-end="" d="M776,479.5, 956,359.5"></path><path class="link" style="stroke-width: 0.5px; stroke-opacity: 1; stroke: rgb(80, 80, 80);" marker-end="" d="M776,519.5, 956,359.5"></path><path class="link" style="stroke-width: 0.5px; stroke-opacity: 1; stroke: rgb(80, 80, 80);" marker-end="" d="M776,559.5, 956,359.5"></path><path class="link" style="stroke-width: 0.5px; stroke-opacity: 1; stroke: rgb(80, 80, 80);" marker-end="" d="M776,599.5, 956,359.5"></path><path class="link" style="stroke-width: 0.5px; stroke-opacity: 1; stroke: rgb(80, 80, 80);" marker-end="" d="M776,639.5, 956,359.5"></path><path class="link" style="stroke-width: 0.5px; stroke-opacity: 1; stroke: rgb(80, 80, 80);" marker-end="" d="M956,359.5, 1136,439.5"></path><path class="link" style="stroke-width: 0.5px; stroke-opacity: 1; stroke: rgb(80, 80, 80);" marker-end="" d="M776,279.5, 956,399.5"></path><path class="link" style="stroke-width: 0.5px; stroke-opacity: 1; stroke: rgb(80, 80, 80);" marker-end="" d="M776,319.5, 956,399.5"></path><path class="link" style="stroke-width: 0.5px; stroke-opacity: 1; stroke: rgb(80, 80, 80);" marker-end="" d="M776,359.5, 956,399.5"></path><path class="link" style="stroke-width: 0.5px; stroke-opacity: 1; stroke: rgb(80, 80, 80);" marker-end="" d="M776,399.5, 956,399.5"></path><path class="link" style="stroke-width: 0.5px; stroke-opacity: 1; stroke: rgb(80, 80, 80);" marker-end="" d="M776,439.5, 956,399.5"></path><path class="link" style="stroke-width: 0.5px; stroke-opacity: 1; stroke: rgb(80, 80, 80);" marker-end="" d="M776,479.5, 956,399.5"></path><path class="link" style="stroke-width: 0.5px; stroke-opacity: 1; stroke: rgb(80, 80, 80);" marker-end="" d="M776,519.5, 956,399.5"></path><path class="link" style="stroke-width: 0.5px; stroke-opacity: 1; stroke: rgb(80, 80, 80);" marker-end="" d="M776,559.5, 956,399.5"></path><path class="link" style="stroke-width: 0.5px; stroke-opacity: 1; stroke: rgb(80, 80, 80);" marker-end="" d="M776,599.5, 956,399.5"></path><path class="link" style="stroke-width: 0.5px; stroke-opacity: 1; stroke: rgb(80, 80, 80);" marker-end="" d="M776,639.5, 956,399.5"></path><path class="link" style="stroke-width: 0.5px; stroke-opacity: 1; stroke: rgb(80, 80, 80);" marker-end="" d="M956,399.5, 1136,439.5"></path><path class="link" style="stroke-width: 0.5px; stroke-opacity: 1; stroke: rgb(80, 80, 80);" marker-end="" d="M776,279.5, 956,439.5"></path><path class="link" style="stroke-width: 0.5px; stroke-opacity: 1; stroke: rgb(80, 80, 80);" marker-end="" d="M776,319.5, 956,439.5"></path><path class="link" style="stroke-width: 0.5px; stroke-opacity: 1; stroke: rgb(80, 80, 80);" marker-end="" d="M776,359.5, 956,439.5"></path><path class="link" style="stroke-width: 0.5px; stroke-opacity: 1; stroke: rgb(80, 80, 80);" marker-end="" d="M776,399.5, 956,439.5"></path><path class="link" style="stroke-width: 0.5px; stroke-opacity: 1; stroke: rgb(80, 80, 80);" marker-end="" d="M776,439.5, 956,439.5"></path><path class="link" style="stroke-width: 0.5px; stroke-opacity: 1; stroke: rgb(80, 80, 80);" marker-end="" d="M776,479.5, 956,439.5"></path><path class="link" style="stroke-width: 0.5px; stroke-opacity: 1; stroke: rgb(80, 80, 80);" marker-end="" d="M776,519.5, 956,439.5"></path><path class="link" style="stroke-width: 0.5px; stroke-opacity: 1; stroke: rgb(80, 80, 80);" marker-end="" d="M776,559.5, 956,439.5"></path><path class="link" style="stroke-width: 0.5px; stroke-opacity: 1; stroke: rgb(80, 80, 80);" marker-end="" d="M776,599.5, 956,439.5"></path><path class="link" style="stroke-width: 0.5px; stroke-opacity: 1; stroke: rgb(80, 80, 80);" marker-end="" d="M776,639.5, 956,439.5"></path><path class="link" style="stroke-width: 0.5px; stroke-opacity: 1; stroke: rgb(80, 80, 80);" marker-end="" d="M956,439.5, 1136,439.5"></path><path class="link" style="stroke-width: 0.5px; stroke-opacity: 1; stroke: rgb(80, 80, 80);" marker-end="" d="M776,279.5, 956,479.5"></path><path class="link" style="stroke-width: 0.5px; stroke-opacity: 1; stroke: rgb(80, 80, 80);" marker-end="" d="M776,319.5, 956,479.5"></path><path class="link" style="stroke-width: 0.5px; stroke-opacity: 1; stroke: rgb(80, 80, 80);" marker-end="" d="M776,359.5, 956,479.5"></path><path class="link" style="stroke-width: 0.5px; stroke-opacity: 1; stroke: rgb(80, 80, 80);" marker-end="" d="M776,399.5, 956,479.5"></path><path class="link" style="stroke-width: 0.5px; stroke-opacity: 1; stroke: rgb(80, 80, 80);" marker-end="" d="M776,439.5, 956,479.5"></path><path class="link" style="stroke-width: 0.5px; stroke-opacity: 1; stroke: rgb(80, 80, 80);" marker-end="" d="M776,479.5, 956,479.5"></path><path class="link" style="stroke-width: 0.5px; stroke-opacity: 1; stroke: rgb(80, 80, 80);" marker-end="" d="M776,519.5, 956,479.5"></path><path class="link" style="stroke-width: 0.5px; stroke-opacity: 1; stroke: rgb(80, 80, 80);" marker-end="" d="M776,559.5, 956,479.5"></path><path class="link" style="stroke-width: 0.5px; stroke-opacity: 1; stroke: rgb(80, 80, 80);" marker-end="" d="M776,599.5, 956,479.5"></path><path class="link" style="stroke-width: 0.5px; stroke-opacity: 1; stroke: rgb(80, 80, 80);" marker-end="" d="M776,639.5, 956,479.5"></path><path class="link" style="stroke-width: 0.5px; stroke-opacity: 1; stroke: rgb(80, 80, 80);" marker-end="" d="M956,479.5, 1136,439.5"></path><path class="link" style="stroke-width: 0.5px; stroke-opacity: 1; stroke: rgb(80, 80, 80);" marker-end="" d="M776,279.5, 956,519.5"></path><path class="link" style="stroke-width: 0.5px; stroke-opacity: 1; stroke: rgb(80, 80, 80);" marker-end="" d="M776,319.5, 956,519.5"></path><path class="link" style="stroke-width: 0.5px; stroke-opacity: 1; stroke: rgb(80, 80, 80);" marker-end="" d="M776,359.5, 956,519.5"></path><path class="link" style="stroke-width: 0.5px; stroke-opacity: 1; stroke: rgb(80, 80, 80);" marker-end="" d="M776,399.5, 956,519.5"></path><path class="link" style="stroke-width: 0.5px; stroke-opacity: 1; stroke: rgb(80, 80, 80);" marker-end="" d="M776,439.5, 956,519.5"></path><path class="link" style="stroke-width: 0.5px; stroke-opacity: 1; stroke: rgb(80, 80, 80);" marker-end="" d="M776,479.5, 956,519.5"></path><path class="link" style="stroke-width: 0.5px; stroke-opacity: 1; stroke: rgb(80, 80, 80);" marker-end="" d="M776,519.5, 956,519.5"></path><path class="link" style="stroke-width: 0.5px; stroke-opacity: 1; stroke: rgb(80, 80, 80);" marker-end="" d="M776,559.5, 956,519.5"></path><path class="link" style="stroke-width: 0.5px; stroke-opacity: 1; stroke: rgb(80, 80, 80);" marker-end="" d="M776,599.5, 956,519.5"></path><path class="link" style="stroke-width: 0.5px; stroke-opacity: 1; stroke: rgb(80, 80, 80);" marker-end="" d="M776,639.5, 956,519.5"></path><path class="link" style="stroke-width: 0.5px; stroke-opacity: 1; stroke: rgb(80, 80, 80);" marker-end="" d="M956,519.5, 1136,439.5"></path><path class="link" style="stroke-width: 0.5px; stroke-opacity: 1; stroke: rgb(80, 80, 80);" marker-end="" d="M776,279.5, 956,559.5"></path><path class="link" style="stroke-width: 0.5px; stroke-opacity: 1; stroke: rgb(80, 80, 80);" marker-end="" d="M776,319.5, 956,559.5"></path><path class="link" style="stroke-width: 0.5px; stroke-opacity: 1; stroke: rgb(80, 80, 80);" marker-end="" d="M776,359.5, 956,559.5"></path><path class="link" style="stroke-width: 0.5px; stroke-opacity: 1; stroke: rgb(80, 80, 80);" marker-end="" d="M776,399.5, 956,559.5"></path><path class="link" style="stroke-width: 0.5px; stroke-opacity: 1; stroke: rgb(80, 80, 80);" marker-end="" d="M776,439.5, 956,559.5"></path><path class="link" style="stroke-width: 0.5px; stroke-opacity: 1; stroke: rgb(80, 80, 80);" marker-end="" d="M776,479.5, 956,559.5"></path><path class="link" style="stroke-width: 0.5px; stroke-opacity: 1; stroke: rgb(80, 80, 80);" marker-end="" d="M776,519.5, 956,559.5"></path><path class="link" style="stroke-width: 0.5px; stroke-opacity: 1; stroke: rgb(80, 80, 80);" marker-end="" d="M776,559.5, 956,559.5"></path><path class="link" style="stroke-width: 0.5px; stroke-opacity: 1; stroke: rgb(80, 80, 80);" marker-end="" d="M776,599.5, 956,559.5"></path><path class="link" style="stroke-width: 0.5px; stroke-opacity: 1; stroke: rgb(80, 80, 80);" marker-end="" d="M776,639.5, 956,559.5"></path><path class="link" style="stroke-width: 0.5px; stroke-opacity: 1; stroke: rgb(80, 80, 80);" marker-end="" d="M956,559.5, 1136,439.5"></path><path class="link" style="stroke-width: 0.5px; stroke-opacity: 1; stroke: rgb(80, 80, 80);" marker-end="" d="M776,279.5, 956,599.5"></path><path class="link" style="stroke-width: 0.5px; stroke-opacity: 1; stroke: rgb(80, 80, 80);" marker-end="" d="M776,319.5, 956,599.5"></path><path class="link" style="stroke-width: 0.5px; stroke-opacity: 1; stroke: rgb(80, 80, 80);" marker-end="" d="M776,359.5, 956,599.5"></path><path class="link" style="stroke-width: 0.5px; stroke-opacity: 1; stroke: rgb(80, 80, 80);" marker-end="" d="M776,399.5, 956,599.5"></path><path class="link" style="stroke-width: 0.5px; stroke-opacity: 1; stroke: rgb(80, 80, 80);" marker-end="" d="M776,439.5, 956,599.5"></path><path class="link" style="stroke-width: 0.5px; stroke-opacity: 1; stroke: rgb(80, 80, 80);" marker-end="" d="M776,479.5, 956,599.5"></path><path class="link" style="stroke-width: 0.5px; stroke-opacity: 1; stroke: rgb(80, 80, 80);" marker-end="" d="M776,519.5, 956,599.5"></path><path class="link" style="stroke-width: 0.5px; stroke-opacity: 1; stroke: rgb(80, 80, 80);" marker-end="" d="M776,559.5, 956,599.5"></path><path class="link" style="stroke-width: 0.5px; stroke-opacity: 1; stroke: rgb(80, 80, 80);" marker-end="" d="M776,599.5, 956,599.5"></path><path class="link" style="stroke-width: 0.5px; stroke-opacity: 1; stroke: rgb(80, 80, 80);" marker-end="" d="M776,639.5, 956,599.5"></path><path class="link" style="stroke-width: 0.5px; stroke-opacity: 1; stroke: rgb(80, 80, 80);" marker-end="" d="M956,599.5, 1136,439.5"></path><path class="link" style="stroke-width: 0.5px; stroke-opacity: 1; stroke: rgb(80, 80, 80);" marker-end="" d="M776,279.5, 956,639.5"></path><path class="link" style="stroke-width: 0.5px; stroke-opacity: 1; stroke: rgb(80, 80, 80);" marker-end="" d="M776,319.5, 956,639.5"></path><path class="link" style="stroke-width: 0.5px; stroke-opacity: 1; stroke: rgb(80, 80, 80);" marker-end="" d="M776,359.5, 956,639.5"></path><path class="link" style="stroke-width: 0.5px; stroke-opacity: 1; stroke: rgb(80, 80, 80);" marker-end="" d="M776,399.5, 956,639.5"></path><path class="link" style="stroke-width: 0.5px; stroke-opacity: 1; stroke: rgb(80, 80, 80);" marker-end="" d="M776,439.5, 956,639.5"></path><path class="link" style="stroke-width: 0.5px; stroke-opacity: 1; stroke: rgb(80, 80, 80);" marker-end="" d="M776,479.5, 956,639.5"></path><path class="link" style="stroke-width: 0.5px; stroke-opacity: 1; stroke: rgb(80, 80, 80);" marker-end="" d="M776,519.5, 956,639.5"></path><path class="link" style="stroke-width: 0.5px; stroke-opacity: 1; stroke: rgb(80, 80, 80);" marker-end="" d="M776,559.5, 956,639.5"></path><path class="link" style="stroke-width: 0.5px; stroke-opacity: 1; stroke: rgb(80, 80, 80);" marker-end="" d="M776,599.5, 956,639.5"></path><path class="link" style="stroke-width: 0.5px; stroke-opacity: 1; stroke: rgb(80, 80, 80);" marker-end="" d="M776,639.5, 956,639.5"></path><path class="link" style="stroke-width: 0.5px; stroke-opacity: 1; stroke: rgb(80, 80, 80);" marker-end="" d="M956,639.5, 1136,439.5"></path><path class="link" style="stroke-width: 0.5px; stroke-opacity: 1; stroke: rgb(80, 80, 80);" marker-end="" d="M956,279.5, 1136,479.5"></path><path class="link" style="stroke-width: 0.5px; stroke-opacity: 1; stroke: rgb(80, 80, 80);" marker-end="" d="M956,319.5, 1136,479.5"></path><path class="link" style="stroke-width: 0.5px; stroke-opacity: 1; stroke: rgb(80, 80, 80);" marker-end="" d="M956,359.5, 1136,479.5"></path><path class="link" style="stroke-width: 0.5px; stroke-opacity: 1; stroke: rgb(80, 80, 80);" marker-end="" d="M956,399.5, 1136,479.5"></path><path class="link" style="stroke-width: 0.5px; stroke-opacity: 1; stroke: rgb(80, 80, 80);" marker-end="" d="M956,439.5, 1136,479.5"></path><path class="link" style="stroke-width: 0.5px; stroke-opacity: 1; stroke: rgb(80, 80, 80);" marker-end="" d="M956,479.5, 1136,479.5"></path><path class="link" style="stroke-width: 0.5px; stroke-opacity: 1; stroke: rgb(80, 80, 80);" marker-end="" d="M956,519.5, 1136,479.5"></path><path class="link" style="stroke-width: 0.5px; stroke-opacity: 1; stroke: rgb(80, 80, 80);" marker-end="" d="M956,559.5, 1136,479.5"></path><path class="link" style="stroke-width: 0.5px; stroke-opacity: 1; stroke: rgb(80, 80, 80);" marker-end="" d="M956,599.5, 1136,479.5"></path><path class="link" style="stroke-width: 0.5px; stroke-opacity: 1; stroke: rgb(80, 80, 80);" marker-end="" d="M956,639.5, 1136,479.5"></path><circle r="10" class="node" id="0_0" style="fill: rgb(255, 255, 255); stroke: rgb(51, 51, 51);" cx="776" cy="279.5"></circle><circle r="10" class="node" id="0_1" style="fill: rgb(255, 255, 255); stroke: rgb(51, 51, 51);" cx="776" cy="319.5"></circle><circle r="10" class="node" id="0_2" style="fill: rgb(255, 255, 255); stroke: rgb(51, 51, 51);" cx="776" cy="359.5"></circle><circle r="10" class="node" id="0_3" style="fill: rgb(255, 255, 255); stroke: rgb(51, 51, 51);" cx="776" cy="399.5"></circle><circle r="10" class="node" id="0_4" style="fill: rgb(255, 255, 255); stroke: rgb(51, 51, 51);" cx="776" cy="439.5"></circle><circle r="10" class="node" id="0_5" style="fill: rgb(255, 255, 255); stroke: rgb(51, 51, 51);" cx="776" cy="479.5"></circle><circle r="10" class="node" id="0_6" style="fill: rgb(255, 255, 255); stroke: rgb(51, 51, 51);" cx="776" cy="519.5"></circle><circle r="10" class="node" id="0_7" style="fill: rgb(255, 255, 255); stroke: rgb(51, 51, 51);" cx="776" cy="559.5"></circle><circle r="10" class="node" id="0_8" style="fill: rgb(255, 255, 255); stroke: rgb(51, 51, 51);" cx="776" cy="599.5"></circle><circle r="10" class="node" id="0_9" style="fill: rgb(255, 255, 255); stroke: rgb(51, 51, 51);" cx="776" cy="639.5"></circle><circle r="10" class="node" id="1_0" style="fill: rgb(255, 255, 255); stroke: rgb(51, 51, 51);" cx="956" cy="279.5"></circle><text class="text" dy=".35em" style="font-size: 12px;" x="741" y="679.5">Input Layer ∈ ℝ¹⁰</text><text class="text" dy=".35em" style="font-size: 12px;" x="921" y="679.5">Hidden Layer ∈ ℝ¹⁰</text><text class="text" dy=".35em" style="font-size: 12px;" x="1101" y="679.5">Output Layer ∈ ℝ²</text><circle r="10" class="node" id="1_1" style="fill: rgb(255, 255, 255); stroke: rgb(51, 51, 51);" cx="956" cy="319.5"></circle><circle r="10" class="node" id="1_2" style="fill: rgb(255, 255, 255); stroke: rgb(51, 51, 51);" cx="956" cy="359.5"></circle><circle r="10" class="node" id="1_3" style="fill: rgb(255, 255, 255); stroke: rgb(51, 51, 51);" cx="956" cy="399.5"></circle><circle r="10" class="node" id="1_4" style="fill: rgb(255, 255, 255); stroke: rgb(51, 51, 51);" cx="956" cy="439.5"></circle><circle r="10" class="node" id="1_5" style="fill: rgb(255, 255, 255); stroke: rgb(51, 51, 51);" cx="956" cy="479.5"></circle><circle r="10" class="node" id="1_6" style="fill: rgb(255, 255, 255); stroke: rgb(51, 51, 51);" cx="956" cy="519.5"></circle><circle r="10" class="node" id="1_7" style="fill: rgb(255, 255, 255); stroke: rgb(51, 51, 51);" cx="956" cy="559.5"></circle><circle r="10" class="node" id="1_8" style="fill: rgb(255, 255, 255); stroke: rgb(51, 51, 51);" cx="956" cy="599.5"></circle><circle r="10" class="node" id="1_9" style="fill: rgb(255, 255, 255); stroke: rgb(51, 51, 51);" cx="956" cy="639.5"></circle><circle r="10" class="node" id="2_0" style="fill: rgb(255, 255, 255); stroke: rgb(51, 51, 51);" cx="1136" cy="439.5"></circle><circle r="10" class="node" id="2_1" style="fill: rgb(255, 255, 255); stroke: rgb(51, 51, 51);" cx="1136" cy="479.5"></circle></g><defs><marker id="arrow" viewBox="0 -5 10 10" markerWidth="7" markerHeight="7" orient="auto" refX="40"><path d="M0,-5L10,0L0,5" style="stroke: rgb(80, 80, 80); fill: none;"></path></marker></defs></svg>